 <svg xmlns="http://www.w3.org/2000/svg" style="display: none;">
   <symbol id="icon-instagram" viewBox="0 0 40 40">
     <rect width="40" height="40" rx="5" fill="#EFEEF3" />
     <path d="M20.0025 14.3595C16.881 14.3595 14.3632 16.8778 14.3632 20C14.3632 23.1222 16.881 25.6405 20.0025 25.6405C23.1239 25.6405 25.6417 23.1222 25.6417 20C25.6417 16.8778 23.1239 14.3595 20.0025 14.3595ZM20.0025 23.6671C17.9853 23.6671 16.3362 22.0225 16.3362 20C16.3362 17.9775 17.9804 16.3329 20.0025 16.3329C22.0245 16.3329 23.6687 17.9775 23.6687 20C23.6687 22.0225 22.0196 23.6671 20.0025 23.6671ZM27.1877 14.1288C27.1877 14.8602 26.5988 15.4444 25.8724 15.4444C25.1411 15.4444 24.5571 14.8553 24.5571 14.1288C24.5571 13.4022 25.146 12.8131 25.8724 12.8131C26.5988 12.8131 27.1877 13.4022 27.1877 14.1288ZM30.9227 15.464C30.8393 13.7017 30.4368 12.1406 29.146 10.8544C27.8601 9.56822 26.2994 9.16568 24.5374 9.07732C22.7215 8.97423 17.2785 8.97423 15.4626 9.07732C13.7055 9.16077 12.1448 9.56332 10.854 10.8495C9.56319 12.1357 9.16564 13.6968 9.0773 15.4591C8.97423 17.2755 8.97423 22.7196 9.0773 24.536C9.16074 26.2983 9.56319 27.8594 10.854 29.1456C12.1448 30.4318 13.7006 30.8343 15.4626 30.9227C17.2785 31.0258 22.7215 31.0258 24.5374 30.9227C26.2994 30.8392 27.8601 30.4367 29.146 29.1456C30.4319 27.8594 30.8344 26.2983 30.9227 24.536C31.0258 22.7196 31.0258 17.2804 30.9227 15.464ZM28.5767 26.4849C28.1939 27.4471 27.4528 28.1883 26.4859 28.5761C25.038 29.1505 21.6025 29.018 20.0025 29.018C18.4025 29.018 14.962 29.1456 13.519 28.5761C12.5571 28.1932 11.816 27.452 11.4282 26.4849C10.854 25.0367 10.9865 21.6004 10.9865 20C10.9865 18.3996 10.8589 14.9584 11.4282 13.5151C11.811 12.5529 12.5521 11.8117 13.519 11.4239C14.9669 10.8495 18.4025 10.982 20.0025 10.982C21.6025 10.982 25.0429 10.8544 26.4859 11.4239C27.4479 11.8068 28.189 12.548 28.5767 13.5151C29.1509 14.9633 29.0184 18.3996 29.0184 20C29.0184 21.6004 29.1509 25.0416 28.5767 26.4849Z" fill="#16133D" />
   </symbol>
   <symbol id="icon-facebook" viewBox="0 0 40 40">
     <rect width="40" height="40" rx="5" fill="#EFEEF3" />
     <path d="M25.0107 21.375L25.6218 17.3935H21.8014V14.8098C21.8014 13.7205 22.3351 12.6588 24.0461 12.6588H25.7829V9.26898C25.7829 9.26898 24.2068 9 22.6999 9C19.5537 9 17.4972 10.907 17.4972 14.3591V17.3935H14V21.375H17.4972V31H21.8014V21.375H25.0107Z" fill="#16133D" />
   </symbol>
   <symbol id="icon-github" viewBox="0 0 40 40">
     <rect width="40" height="40" rx="5" fill="#EFEEF3" />
     <path d="M16.3585 26.7144C16.3585 26.8053 16.2565 26.8781 16.1278 26.8781C15.9815 26.8918 15.8794 26.819 15.8794 26.7144C15.8794 26.6234 15.9815 26.5506 16.1101 26.5506C16.2431 26.537 16.3585 26.6097 16.3585 26.7144ZM14.979 26.5097C14.948 26.6006 15.0367 26.7053 15.1698 26.7326C15.2851 26.7781 15.4181 26.7326 15.4448 26.6416C15.4714 26.5506 15.3871 26.446 15.254 26.405C15.1387 26.3732 15.0101 26.4187 14.979 26.5097ZM16.9395 26.4323C16.8109 26.4642 16.7222 26.5506 16.7355 26.6552C16.7488 26.7462 16.8641 26.8054 16.9972 26.7735C17.1258 26.7417 17.2145 26.6552 17.2012 26.5642C17.1879 26.4778 17.0681 26.4187 16.9395 26.4323ZM19.8581 9C13.706 9 9 13.7902 9 20.0999C9 25.1449 12.096 29.4621 16.5181 30.9815C17.0859 31.0861 17.2855 30.7267 17.2855 30.431C17.2855 30.149 17.2722 28.5932 17.2722 27.6378C17.2722 27.6378 14.1673 28.3202 13.5153 26.2822C13.5153 26.2822 13.0097 24.9584 12.2823 24.6172C12.2823 24.6172 11.2665 23.903 12.3532 23.9166C12.3532 23.9166 13.4577 24.0076 14.0653 25.0903C15.0367 26.8463 16.6645 26.3413 17.2988 26.0411C17.4008 25.3132 17.6891 24.8083 18.0085 24.508C15.529 24.226 13.0274 23.8575 13.0274 19.4812C13.0274 18.2302 13.3645 17.6024 14.0742 16.8018C13.9589 16.5061 13.5819 15.2869 14.1895 13.7129C15.1165 13.4172 17.25 14.9412 17.25 14.9412C18.1371 14.6864 19.0907 14.5545 20.0355 14.5545C20.9802 14.5545 21.9339 14.6864 22.821 14.9412C22.821 14.9412 24.9544 13.4127 25.8815 13.7129C26.4891 15.2915 26.1121 16.5061 25.9968 16.8018C26.7065 17.607 27.1411 18.2348 27.1411 19.4812C27.1411 23.8712 24.5286 24.2214 22.0492 24.508C22.4573 24.8674 22.8032 25.5498 22.8032 26.6188C22.8032 28.1519 22.7899 30.0489 22.7899 30.4219C22.7899 30.7176 22.994 31.077 23.5573 30.9724C27.9927 29.4621 31 25.1449 31 20.0999C31 13.7902 26.0101 9 19.8581 9ZM13.3113 24.69C13.2536 24.7355 13.2669 24.8401 13.3423 24.9266C13.4133 24.9993 13.5153 25.0312 13.573 24.972C13.6306 24.9266 13.6173 24.8219 13.5419 24.7355C13.471 24.6627 13.369 24.6309 13.3113 24.69ZM12.8323 24.3215C12.8012 24.3807 12.8456 24.4534 12.9343 24.4989C13.0052 24.5444 13.094 24.5308 13.125 24.4671C13.156 24.408 13.1117 24.3352 13.023 24.2897C12.9343 24.2624 12.8633 24.276 12.8323 24.3215ZM14.2694 25.941C14.1984 26.0002 14.225 26.1366 14.327 26.2231C14.429 26.3277 14.5577 26.3413 14.6153 26.2686C14.673 26.2094 14.6464 26.0729 14.5577 25.9865C14.4601 25.8819 14.327 25.8682 14.2694 25.941ZM13.7637 25.2723C13.6927 25.3178 13.6927 25.4361 13.7637 25.5407C13.8347 25.6453 13.9544 25.6908 14.0121 25.6453C14.0831 25.5862 14.0831 25.4679 14.0121 25.3633C13.95 25.2586 13.8347 25.2132 13.7637 25.2723Z" fill="#16133D" />
   </symbol>
   <symbol id="icon-browser" viewBox="0 0 40 40">
     <rect width="40" height="40" rx="5" fill="#EFEEF3" />
     <path d="M20 9C13.9346 9 9 13.9346 9 20C9 26.0654 13.9346 31 20 31C26.0654 31 31 26.0654 31 20C31 13.9346 26.0654 9 20 9ZM27.2729 14.0727C28.5815 15.6715 29.3739 17.7079 29.3946 19.9255C29.0848 19.86 25.9785 19.23 22.8521 19.6231C22.597 19.0003 22.3562 18.4525 22.0264 17.7773C25.5003 16.359 27.0748 14.3406 27.2729 14.0727ZM26.2283 12.9862C26.0594 13.2269 24.645 15.1279 21.304 16.3802C19.7644 13.5514 18.0579 11.2275 17.7982 10.8798C20.7778 10.1616 23.9177 10.9361 26.2283 12.9862ZM16.0054 11.5114C16.2532 11.8511 17.9321 14.1778 19.4889 16.9452C15.094 18.1123 11.223 18.0955 10.8028 18.09C11.412 15.1744 13.3768 12.7512 16.0054 11.5114ZM10.6043 20.0143C10.6043 19.9183 10.6062 19.8226 10.6091 19.7272C11.0202 19.7356 15.5733 19.7943 20.2654 18.3901C20.5344 18.9165 20.7913 19.4508 21.0272 19.9846C17.6296 20.9416 14.5428 23.6894 13.0197 26.2966C11.5191 24.6309 10.6043 22.4275 10.6043 20.0143ZM14.2329 27.4266C15.2143 25.4203 17.8778 22.8305 21.6658 21.5382C22.9849 24.9661 23.5304 27.839 23.6701 28.6633C20.649 29.9502 17.0162 29.5971 14.2329 27.4266ZM25.2497 27.8031C25.1534 27.2316 24.6533 24.4811 23.4244 21.1041C26.3687 20.6328 28.9555 21.4043 29.2769 21.5057C28.8581 24.12 27.3575 26.3778 25.2497 27.8031Z" fill="#16133D" />
   </symbol>
   <symbol id="icon-x" viewBox="0 0 40 40">
     <rect width="40" height="40" rx="5" fill="#EFEEF3" />
     <path fill-rule="evenodd" clip-rule="evenodd" d="M31.495 31L22.698 18.178L22.713 18.19L30.6448 9H27.9942L21.5328 16.48L16.4016 9H9.45009L17.6629 20.971L17.6619 20.97L9 31H11.6506L18.8342 22.678L24.5435 31H31.495ZM15.3514 11L27.6941 29H25.5937L13.241 11H15.3514Z" fill="#16133D" />
   </symbol>
 </svg>