<svg xmlns="http://www.w3.org/2000/svg">
  <symbol id='m-blue' width="40" height="36" viewBox="0 0 40 36">
    <path d="M32.3729 12.5215C34.9655 10.5404 34.07 6.62262 30.8304 5.81066C29.9839 5.5985 29.1076 5.64263 28.3042 5.92889L25.7302 1.75793C24.6827 0.0605986 22.0848 0.0156194 20.9694 1.67053C17.8033 6.36843 13.5854 10.3641 8.57779 13.3962C8.29263 13.5685 8.18692 13.9246 8.35566 14.2144C8.38273 14.2608 12.6465 21.1688 12.6747 21.2145C12.8581 21.5116 13.2641 21.6137 13.5822 21.442C13.8999 21.2704 14.0088 20.8903 13.8253 20.593L9.82696 14.1141C14.6018 11.1279 18.8307 7.17449 22.0934 2.33342C22.6769 1.46747 24.0332 1.49435 24.5795 2.37941L33.7966 17.3144C34.3435 18.2006 33.6878 19.3118 32.5961 19.3516C26.4713 19.5748 20.4747 21.0403 14.9922 23.6636C14.9689 23.6747 8.75284 27.0326 8.32477 27.2638C7.21361 27.864 5.78782 27.5066 5.14642 26.4671L1.78157 21.0146C1.14008 19.9752 1.52215 18.6414 2.63322 18.0412L6.68299 15.8539C7.0007 15.6823 7.10957 15.3022 6.92613 15.0049C6.7427 14.7076 6.3363 14.6059 6.01867 14.7775L1.9689 16.9648C0.223407 17.9076 -0.376805 20.0031 0.630966 21.6361L3.9959 27.0885C5.00376 28.7216 7.24376 29.2829 8.98925 28.3401L9.14246 28.2574L13.2969 34.989C13.8936 35.9559 15.2131 36.2871 16.2473 35.7286L17.7044 34.9416C18.7382 34.3832 19.0918 33.1487 18.4949 32.1815L15.5506 27.4106C15.3671 27.1134 14.9608 27.0116 14.6431 27.1832C14.3254 27.3548 14.2165 27.7349 14.4 28.0321L17.3443 32.803C17.574 33.1751 17.438 33.6503 17.04 33.8651L15.5829 34.6522C15.1851 34.867 14.6772 34.7397 14.4475 34.3675L10.2931 27.6359L15.6123 24.7629C20.8173 22.275 26.6078 20.8136 32.6479 20.5935C34.7411 20.5171 35.9931 18.3873 34.9472 16.6928L32.3729 12.5215ZM32.1832 8.22914C32.839 9.29186 32.6035 10.6106 31.6956 11.4239L28.9814 7.02596C30.1713 6.69945 31.5168 7.14924 32.1832 8.22914ZM38.6807 5.46613L36.9619 6.39454C36.6439 6.56622 36.2378 6.46422 36.0544 6.16708C35.8709 5.86985 35.9799 5.48974 36.2976 5.31814L38.0164 4.38973C38.3344 4.21805 38.7405 4.32005 38.9239 4.61719C39.1073 4.91441 38.9984 5.29452 38.6807 5.46613ZM31.2887 1.92402L31.7079 0.460752C31.8029 0.129194 32.1669 -0.0674254 32.5216 0.0212904C32.876 0.110162 33.0862 0.450964 32.9912 0.782444L32.5721 2.24571C32.4773 2.57641 32.1139 2.77404 31.7584 2.68517C31.404 2.5963 31.1938 2.25558 31.2887 1.92402ZM39.9772 12.1022C39.8977 12.3798 39.6293 12.5629 39.3359 12.5629C39.2157 12.5629 39.2998 12.5757 37.5994 12.1495C37.245 12.0606 37.0346 11.7199 37.1296 11.3883C37.2246 11.0568 37.5889 10.8602 37.9432 10.9489L39.5075 11.3409C39.8618 11.4298 40.0722 11.7706 39.9772 12.1022Z" fill="#007FFC" />
  </symbol>
  <symbol id='m-green' width="40" height="36" viewBox="0 0 40 36">
    <path d="M34.2303 17.0039C35.0267 18.2942 34.0717 19.9147 32.4798 19.9722C26.6672 20.1851 20.7405 21.5432 15.1528 24.2169L13.3051 25.2144C13.3051 25.2222 13.2796 25.1736 17.7776 32.4919C18.1904 33.1615 17.9454 34.0168 17.2304 34.4037L15.7731 35.1906C15.0581 35.5767 14.143 35.3476 13.7303 34.6779L9.24365 27.4082L8.51539 27.8021C7.08461 28.5742 5.25525 28.1159 4.429 26.7774L1.06423 21.3255C0.238812 19.987 0.728747 18.2756 2.15952 17.5026L8.79689 13.9175C13.8694 10.8478 18.1678 6.78337 21.3899 2.00218C22.2394 0.74136 24.2166 0.777871 25.0129 2.06821L27.8919 6.73396C29.546 5.84058 31.6619 6.37117 32.6169 7.91865C33.5718 9.46613 33.0047 11.4448 31.3505 12.3381L34.2303 17.0039Z" fill="#E1F4F5" />
    <path d="M32.6168 7.91887C33.5718 9.46636 33.0046 11.445 31.3505 12.3384L27.8918 6.73416C29.546 5.84078 31.6619 6.37137 32.6168 7.91887Z" fill="#E1F4F5" />
    <path d="M25.0129 2.06818C25.4102 2.7125 25.3847 3.5118 24.9451 4.13157C21.3983 9.13111 16.6444 13.6487 10.8305 17.1677L3.05386 21.3681C2.51991 21.6571 2.09724 22.0572 1.80162 22.5194L1.06423 21.3254C0.238812 19.9869 0.728747 18.2755 2.15952 17.5026L8.79689 13.9174C13.8694 10.8478 18.1678 6.78333 21.3899 2.00215C22.2394 0.741332 24.2165 0.777921 25.0129 2.06818Z" fill="#F4FEFF" />
    <path d="M8.79689 13.9177L15.1528 24.2171C13.8791 24.9047 9.78722 27.1145 8.51538 27.8023C7.08461 28.5745 5.25524 28.1161 4.429 26.7776L1.06423 21.3257C0.238812 19.9872 0.728747 18.2758 2.15952 17.5029L8.79689 13.9177Z" fill="#CAEFF2" />
    <path d="M10.8097 17.1794C2.36409 21.7406 2.92378 21.4233 2.65133 21.6216C2.13823 21.9951 1.38937 21.852 1.06411 21.3254C0.23869 19.9869 0.728625 18.2756 2.1594 17.5026L8.79677 13.9175L10.8097 17.1794Z" fill="#E1F4F5" />
    <path d="M14.515 27.183C12.152 28.463 13.8906 27.521 10.4577 29.3744L9.24365 27.4083L13.3051 25.2153L14.515 27.183Z" fill="#CAEFF2" />
    <path d="M32.41 11.4495C32.136 11.8014 31.7798 12.1067 31.3504 12.3382L27.8918 6.73412C28.3212 6.50185 28.782 6.36668 29.2446 6.32007C29.4186 6.60221 32.2582 11.2035 32.41 11.4495Z" fill="#CAEFF2" />
    <path d="M32.231 12.5215C34.8236 10.5404 33.928 6.62262 30.6884 5.81066C29.8419 5.5985 28.9656 5.64263 28.1623 5.92889L25.5882 1.75793C24.5407 0.0605986 21.9428 0.0156194 20.8274 1.67053C17.6614 6.36843 13.4435 10.3641 8.43582 13.3962C8.15067 13.5685 8.04496 13.9246 8.21369 14.2144C8.24076 14.2608 12.5045 21.1688 12.5328 21.2145C12.7161 21.5116 13.1222 21.6137 13.4402 21.442C13.7579 21.2704 13.8668 20.8903 13.6834 20.593L9.68499 14.1141C14.4599 11.1279 18.6887 7.17449 21.9514 2.33342C22.5349 1.46747 23.8913 1.49435 24.4375 2.37941L33.6546 17.3144C34.2015 18.2006 33.5458 19.3118 32.4541 19.3516C26.3293 19.5748 20.3328 21.0403 14.8502 23.6636C14.8269 23.6747 8.61087 27.0326 8.1828 27.2638C7.07165 27.864 5.64585 27.5066 5.00445 26.4671L1.6396 21.0146C0.998115 19.9752 1.38018 18.6414 2.49125 18.0412L6.54102 15.8539C6.85873 15.6823 6.9676 15.3022 6.78416 15.0049C6.60073 14.7076 6.19433 14.6059 5.8767 14.7775L1.82694 16.9648C0.0814388 17.9076 -0.518773 20.0031 0.488998 21.6361L3.85394 27.0885C4.86179 28.7216 7.10179 29.2829 8.84729 28.3401L9.0005 28.2574L13.1549 34.989C13.7516 35.9559 15.0711 36.2871 16.1053 35.7286L17.5624 34.9416C18.5962 34.3832 18.9498 33.1487 18.3529 32.1815L15.4086 27.4106C15.2252 27.1134 14.8188 27.0116 14.5011 27.1832C14.1834 27.3548 14.0746 27.7349 14.258 28.0321L17.2023 32.803C17.432 33.1751 17.296 33.6503 16.8981 33.8651L15.441 34.6522C15.0431 34.867 14.5353 34.7397 14.3056 34.3675L10.1512 27.6359L15.4703 24.7629C20.6753 22.275 26.4658 20.8136 32.5059 20.5935C34.5992 20.5171 35.8512 18.3873 34.8052 16.6928L32.231 12.5215ZM32.0412 8.22914C32.6971 9.29186 32.4615 10.6106 31.5536 11.4239L28.8395 7.02596C30.0293 6.69945 31.3748 7.14924 32.0412 8.22914ZM38.5387 5.46613L36.8199 6.39454C36.5019 6.56622 36.0958 6.46422 35.9124 6.16708C35.7289 5.86985 35.8379 5.48974 36.1556 5.31814L37.8744 4.38973C38.1924 4.21805 38.5985 4.32005 38.7819 4.61719C38.9653 4.91441 38.8565 5.29452 38.5387 5.46613ZM31.1467 1.92402L31.5659 0.460752C31.6609 0.129194 32.0249 -0.0674254 32.3796 0.0212904C32.734 0.110162 32.9443 0.450964 32.8493 0.782444L32.4301 2.24571C32.3353 2.57641 31.972 2.77404 31.6164 2.68517C31.2621 2.5963 31.0518 2.25558 31.1467 1.92402ZM39.8353 12.1022C39.7557 12.3798 39.4873 12.5629 39.1939 12.5629C39.0737 12.5629 39.1578 12.5757 37.4574 12.1495C37.103 12.0606 36.8927 11.7199 36.9876 11.3883C37.0826 11.0568 37.4469 10.8602 37.8013 10.9489L39.3655 11.3409C39.7198 11.4298 39.9302 11.7706 39.8353 12.1022Z" fill="#52C29D" />
  </symbol>
  <symbol id='p-blue' width="40" height="36" viewBox="0 0 40 36">
    <path d="M36.4285 13.3215V32.9997C36.4285 34.325 35.2797 35.3997 33.8631 35.3997H5.64347C4.22687 35.3997 3.07805 34.325 3.07805 32.9997C3.07805 14.3965 3.07637 17.8814 3.08366 13.3215H36.4285Z" fill="#D1E7FF" />
    <path d="M36.4284 13.3215V17.8664C36.4284 18.8499 35.5857 19.6647 34.5343 19.6687C34.5226 19.6687 4.99246 19.6687 4.97113 19.6687C3.92011 19.6644 3.07793 18.8496 3.07793 17.8664C3.07793 16.5546 3.07697 17.4602 3.08354 13.3215H36.4284Z" fill="#B9DCFF" />
    <path d="M26.247 24.6749V35.3998H13.2595V24.6749C13.2595 23.3496 14.4084 22.2749 15.825 22.2749H23.6816C25.0982 22.2749 26.247 23.3496 26.247 24.6749Z" fill="#E8F3FF" />
    <path d="M38.3525 13.3215C38.3525 15.7228 36.271 17.6715 33.7026 17.6715C31.1348 17.6715 29.0528 15.7237 29.0528 13.3215C29.0528 15.7237 26.9708 17.6715 24.403 17.6715C21.8352 17.6715 19.7532 15.7237 19.7532 13.3215C19.7532 15.7237 17.6712 17.6715 15.1034 17.6715C12.5355 17.6715 10.4535 15.7237 10.4535 13.3215C10.4495 15.708 8.34991 17.6715 5.80373 17.6715C3.26068 17.6715 1.15792 15.7105 1.15391 13.3215C1.15391 9.54093 1.14285 9.77358 1.18197 9.60003C1.22045 9.4297 0.953727 10.0328 4.98761 1.32309C5.19124 0.884345 5.65381 0.600098 6.16449 0.600098H33.3419C33.8526 0.600098 34.3151 0.884345 34.5188 1.32309C38.5556 10.0392 38.2858 9.42955 38.3244 9.60003C38.3634 9.7732 38.3525 9.5368 38.3525 13.3215Z" fill="#B9DCFF" />
    <path d="M38.3525 13.3215C38.3525 15.7227 36.2711 17.6714 33.7027 17.6714C31.1349 17.6714 29.0529 15.7237 29.0529 13.3215C29.0529 15.7237 26.9709 17.6714 24.4031 17.6714C21.8352 17.6714 19.7532 15.7237 19.7532 13.3215C19.7532 15.7237 17.6712 17.6714 15.1034 17.6714C12.5356 17.6714 10.4536 15.7237 10.4536 13.3215C10.4496 15.7079 8.34994 17.6714 5.80376 17.6714C3.26071 17.6714 1.15794 15.7104 1.15393 13.3215C1.1476 9.5203 1.14856 9.74837 1.18199 9.6001H38.3245C38.3635 9.77327 38.3525 9.53687 38.3525 13.3215Z" fill="#B9DCFF" />
    <path d="M32.9955 3.8062C24.8521 2.7577 16.6336 4.10253 9.98625 8.78839C9.23803 9.31586 8.32602 9.60011 7.38916 9.60011H1.18213C1.22061 9.42979 0.953887 10.0329 4.98777 1.3231C5.1914 0.884348 5.65397 0.600098 6.16465 0.600098H33.3421C33.8532 0.600098 34.3156 0.884048 34.5188 1.3228L34.6975 1.70845C35.1982 2.78943 34.2431 3.96685 32.9955 3.8062Z" fill="white" />
    <path d="M37.0698 20.325V33C37.0698 34.6542 35.6312 36 33.863 36H5.64338C3.87517 36 2.43661 34.6542 2.43661 33V20.325C2.43661 19.9937 2.72377 19.725 3.07796 19.725C3.43215 19.725 3.71932 19.9937 3.71932 20.325V33C3.71932 33.9925 4.58242 34.8 5.64338 34.8H12.6181V24.675C12.6181 23.0208 14.0567 21.675 15.8249 21.675H23.6815C25.4497 21.675 26.8883 23.0208 26.8883 24.675V32.4C26.8883 32.7313 26.6011 33 26.2469 33C25.8927 33 25.6055 32.7313 25.6055 32.4V24.675C25.6055 23.6825 24.7424 22.875 23.6815 22.875H15.8249C14.764 22.875 13.9008 23.6825 13.9008 24.675V34.8H19.1118V25.35C19.1118 25.0187 19.399 24.75 19.7532 24.75C20.1074 24.75 20.3945 25.0187 20.3945 25.35V34.8H33.863C34.9239 34.8 35.787 33.9925 35.787 33V20.325C35.787 19.9937 36.0742 19.725 36.4284 19.725C36.7826 19.725 37.0698 19.9936 37.0698 20.325ZM4.68135 9.6C4.68135 9.93135 4.96852 10.2 5.3227 10.2C40.2178 10.2 38.4877 10.2584 38.7426 10.0754C38.8759 9.9795 38.963 9.84112 38.9869 9.68303C39.0227 9.4419 39.2528 10.0349 34.7721 0.361425C34.6704 0.141975 34.4392 0 34.1836 0H5.32262C5.06704 0 4.83576 0.14205 4.73418 0.361425L0.565375 9.36143C0.4917 9.52058 0.512464 9.26798 0.512464 13.3224C0.517114 16.0513 2.89069 18.2714 5.80364 18.2714C7.80619 18.2714 9.5538 17.2222 10.4521 15.6797C12.4584 19.129 17.7431 19.1328 19.7531 15.682C21.7615 19.13 27.0439 19.1308 29.0527 15.682C29.9504 17.2232 31.6982 18.2714 33.7026 18.2714C36.6202 18.2714 38.9937 16.0509 38.9937 13.3214C38.9937 12.9901 38.7066 12.7214 38.3524 12.7214C37.9982 12.7214 37.711 12.9901 37.711 13.3214C37.711 15.3892 35.9128 17.0714 33.7026 17.0714C31.4923 17.0714 29.6941 15.3892 29.6941 13.3214C29.6941 12.9901 29.4069 12.7214 29.0527 12.7214C28.6986 12.7214 28.4114 12.9901 28.4114 13.3214C28.4114 15.3892 26.6132 17.0714 24.4029 17.0714C22.1927 17.0714 20.3945 15.3892 20.3945 13.3214C20.3945 12.9901 20.1073 12.7214 19.7531 12.7214C19.3989 12.7214 19.1117 12.9901 19.1117 13.3214C19.1117 15.3892 17.3136 17.0714 15.1033 17.0714C12.9422 17.0714 11.0948 15.4466 11.0948 13.2914C11.0948 12.9601 10.8076 12.6914 10.4535 12.6914C10.0993 12.6914 9.81211 12.9601 9.81211 13.2914C9.81211 15.4284 7.97631 17.0714 5.80364 17.0714C3.5969 17.0714 1.79862 15.3887 1.79517 13.3214V9.72435L5.74375 1.2H33.7626L37.3755 9H5.3227C4.96844 9 4.68135 9.26858 4.68135 9.6Z" fill="#007FFC" />
  </symbol>
  <symbol id='p-green' width="40" height="36" viewBox="0 0 40 36">
    <path d="M35.9187 13.3215V32.9997C35.9187 34.325 34.7699 35.3997 33.3533 35.3997H5.1337C3.71711 35.3997 2.56828 34.325 2.56828 32.9997C2.56828 14.3965 2.5666 17.8814 2.57389 13.3215H35.9187Z" fill="#E1F4F5" />
    <path d="M35.9187 13.3215V17.8664C35.9187 18.8499 35.0759 19.6647 34.0246 19.6687C34.0129 19.6687 4.48269 19.6687 4.46137 19.6687C3.41034 19.6644 2.56816 18.8496 2.56816 17.8664C2.56816 16.5546 2.5672 17.4602 2.57378 13.3215H35.9187Z" fill="#CAEFF2" />
    <path d="M25.7372 24.6749V35.3998H12.7498V24.6749C12.7498 23.3496 13.8986 22.2749 15.3152 22.2749H23.1718C24.5884 22.2749 25.7372 23.3496 25.7372 24.6749Z" fill="#F4FEFF" />
    <path d="M37.8427 13.3215C37.8427 15.7228 35.7613 17.6715 33.1929 17.6715C30.6251 17.6715 28.5431 15.7237 28.5431 13.3215C28.5431 15.7237 26.4611 17.6715 23.8932 17.6715C21.3254 17.6715 19.2434 15.7237 19.2434 13.3215C19.2434 15.7237 17.1614 17.6715 14.5936 17.6715C12.0258 17.6715 9.94378 15.7237 9.94378 13.3215C9.93977 15.708 7.84014 17.6715 5.29396 17.6715C2.75091 17.6715 0.648153 15.7105 0.644144 13.3215C0.644144 9.54093 0.633081 9.77358 0.672203 9.60003C0.710685 9.4297 0.443961 10.0328 4.47784 1.32309C4.68147 0.884345 5.14405 0.600098 5.65473 0.600098H32.8321C33.3428 0.600098 33.8054 0.884345 34.009 1.32309C38.0458 10.0392 37.7761 9.42955 37.8146 9.60003C37.8537 9.7732 37.8427 9.5368 37.8427 13.3215Z" fill="#CAEFF2" />
    <path d="M37.8428 13.3215C37.8428 15.7227 35.7613 17.6714 33.1929 17.6714C30.6251 17.6714 28.5431 15.7237 28.5431 13.3215C28.5431 15.7237 26.4611 17.6714 23.8933 17.6714C21.3255 17.6714 19.2435 15.7237 19.2435 13.3215C19.2435 15.7237 17.1615 17.6714 14.5936 17.6714C12.0258 17.6714 9.94382 15.7237 9.94382 13.3215C9.93981 15.7079 7.84017 17.6714 5.29399 17.6714C2.75094 17.6714 0.648177 15.7104 0.644169 13.3215C0.637835 9.5203 0.638797 9.74837 0.672228 9.6001H37.8147C37.8537 9.77327 37.8428 9.53687 37.8428 13.3215Z" fill="#CAEFF2" />
    <path d="M32.4857 3.8062C24.3424 2.7577 16.1238 4.10253 9.47648 8.78839C8.72826 9.31586 7.81625 9.60011 6.87939 9.60011H0.672363C0.710845 9.42979 0.444121 10.0329 4.478 1.3231C4.68163 0.884348 5.14421 0.600098 5.65489 0.600098H32.8323C33.3435 0.600098 33.8058 0.884048 34.009 1.3228L34.1877 1.70845C34.6885 2.78943 33.7333 3.96685 32.4857 3.8062Z" fill="white" />
    <path d="M36.56 20.325V33C36.56 34.6542 35.1214 36 33.3532 36H5.13362C3.3654 36 1.92684 34.6542 1.92684 33V20.325C1.92684 19.9937 2.21401 19.725 2.5682 19.725C2.92238 19.725 3.20955 19.9937 3.20955 20.325V33C3.20955 33.9925 4.07265 34.8 5.13362 34.8H12.1083V24.675C12.1083 23.0208 13.5469 21.675 15.3151 21.675H23.1717C24.9399 21.675 26.3785 23.0208 26.3785 24.675V32.4C26.3785 32.7313 26.0913 33 25.7371 33C25.3829 33 25.0958 32.7313 25.0958 32.4V24.675C25.0958 23.6825 24.2326 22.875 23.1717 22.875H15.3151C14.2542 22.875 13.3911 23.6825 13.3911 24.675V34.8H18.6021V25.35C18.6021 25.0187 18.8892 24.75 19.2434 24.75C19.5976 24.75 19.8848 25.0187 19.8848 25.35V34.8H33.3532C34.4141 34.8 35.2773 33.9925 35.2773 33V20.325C35.2773 19.9937 35.5644 19.725 35.9186 19.725C36.2728 19.725 36.56 19.9936 36.56 20.325ZM4.17158 9.6C4.17158 9.93135 4.45875 10.2 4.81294 10.2C39.7081 10.2 37.9779 10.2584 38.2329 10.0754C38.3661 9.9795 38.4533 9.84112 38.4772 9.68303C38.5129 9.4419 38.7431 10.0349 34.2623 0.361425C34.1606 0.141975 33.9295 0 33.6738 0H4.81286C4.55728 0 4.32599 0.14205 4.22441 0.361425L0.0556098 9.36143C-0.0180658 9.52058 0.00269808 9.26798 0.00269808 13.3224C0.0073479 16.0513 2.38092 18.2714 5.29387 18.2714C7.29642 18.2714 9.04403 17.2222 9.94233 15.6797C11.9486 19.129 17.2333 19.1328 19.2433 15.682C21.2517 19.13 26.5341 19.1308 28.543 15.682C29.4406 17.2232 31.1884 18.2714 33.1928 18.2714C36.1104 18.2714 38.484 16.0509 38.484 13.3214C38.484 12.9901 38.1968 12.7214 37.8426 12.7214C37.4884 12.7214 37.2013 12.9901 37.2013 13.3214C37.2013 15.3892 35.4031 17.0714 33.1928 17.0714C30.9825 17.0714 29.1843 15.3892 29.1843 13.3214C29.1843 12.9901 28.8972 12.7214 28.543 12.7214C28.1888 12.7214 27.9016 12.9901 27.9016 13.3214C27.9016 15.3892 26.1034 17.0714 23.8932 17.0714C21.6829 17.0714 19.8847 15.3892 19.8847 13.3214C19.8847 12.9901 19.5975 12.7214 19.2433 12.7214C18.8891 12.7214 18.602 12.9901 18.602 13.3214C18.602 15.3892 16.8038 17.0714 14.5935 17.0714C12.4324 17.0714 10.585 15.4466 10.585 13.2914C10.585 12.9601 10.2979 12.6914 9.94369 12.6914C9.58951 12.6914 9.30234 12.9601 9.30234 13.2914C9.30234 15.4284 7.46654 17.0714 5.29387 17.0714C3.08713 17.0714 1.28885 15.3887 1.28541 13.3214V9.72435L5.23399 1.2H33.2528L36.8658 9H4.81294C4.45867 9 4.17158 9.26858 4.17158 9.6Z" fill="#52C29D" />
  </symbol>
  <symbol id='l-blue' width="40" height="36" viewBox="0 0 40 36">
    <path d="M21.7934 0.600098C23.21 0.600098 24.3588 1.67485 24.3588 3.0001V33.0001C24.3588 34.3254 23.21 35.4001 21.7934 35.4001H4.15601C2.73941 35.4001 1.59058 34.3254 1.59058 33.0001V3.0001C1.59058 1.67485 2.73941 0.600098 4.15601 0.600098H21.7934Z" fill="#D1E7FF" />
    <path d="M17.0087 13.479C17.6228 13.479 18.1375 13.9118 18.204 14.4825L19.0618 21.8535C19.1396 22.5188 18.5824 23.1 17.8665 23.1H8.08259C7.36668 23.1 6.8095 22.5188 6.88726 21.8535L7.74508 14.4825C7.81162 13.9118 8.32631 13.479 8.94041 13.479H17.0087Z" fill="#B9DCFF" />
    <path d="M21.9146 0.602744C23.9778 0.692519 23.8684 3.60012 21.803 3.60012H13.4557C8.67384 3.60012 4.79738 7.22659 4.79738 11.7001V35.4001H4.15602C2.73917 35.4001 1.59058 34.3256 1.59058 33.0001V3.00012C1.59058 1.67464 2.73917 0.600119 4.15602 0.600119C4.2721 0.600119 21.8205 0.598619 21.9146 0.602744Z" fill="#E8F3FF" />
    <path d="M24.3588 30.1501V33.0001C24.3588 34.3254 23.21 35.4001 21.7934 35.4001H4.15601C2.73941 35.4001 1.59058 34.3254 1.59058 33.0001V30.1501H24.3588Z" fill="#B9DCFF" />
    <path d="M4.79736 30.1501V33.009C4.79736 34.9636 1.59058 35.0635 1.59058 33.0001V30.1501H4.79736Z" fill="#D1E7FF" />
    <path d="M17.0089 15.729C13.1241 15.729 9.94864 18.4649 9.53865 21.9895C9.46513 22.6214 8.89472 23.1 8.21528 23.1H8.0826C7.36668 23.1 6.8095 22.5188 6.88726 21.8535L7.74508 14.4825C7.81162 13.9118 8.32632 13.479 8.94042 13.479H17.0087C17.6224 13.479 18.1376 13.9113 18.204 14.4821C18.2817 15.149 17.7235 15.729 17.0089 15.729Z" fill="#D1E7FF" />
    <path d="M21.7932 0H4.15589C2.38766 0 0.949097 1.3458 0.949097 3V33C0.949097 34.6542 2.38766 36 4.15589 36H21.7932C23.5615 36 25 34.6542 25 33V3C25 1.3458 23.5615 0 21.7932 0ZM21.7932 34.8H4.15589C3.095 34.8 2.23181 33.9925 2.23181 33V3C2.23181 2.00745 3.095 1.2 4.15589 1.2H21.7932C22.8541 1.2 23.7173 2.00745 23.7173 3V29.55H5.35844C5.00424 29.55 4.71708 29.8187 4.71708 30.15C4.71708 30.4814 5.00424 30.75 5.35844 30.75H23.7173V33C23.7173 33.9925 22.8541 34.8 21.7932 34.8ZM14.4176 32.625C14.4176 32.9564 14.1305 33.225 13.7763 33.225H12.1729C11.8187 33.225 11.5315 32.9564 11.5315 32.625C11.5315 32.2937 11.8187 32.025 12.1729 32.025H13.7763C14.1305 32.025 14.4176 32.2937 14.4176 32.625ZM8.0826 23.7H17.8665C18.9634 23.7 19.8183 22.8079 19.6996 21.7883L18.8419 14.4176C18.7398 13.5407 17.9517 12.8794 17.0088 12.8794H16.4151V11.7686C16.415 9.99383 14.8716 8.55 12.9746 8.55C11.0775 8.55 9.53416 9.99383 9.53416 11.7686V12.8793H8.94042C7.99746 12.8793 7.20948 13.5406 7.10734 14.4176L6.2496 21.7883C6.13087 22.8084 6.98636 23.7 8.0826 23.7ZM7.5247 21.9182L8.38244 14.5475C8.41355 14.2806 8.65333 14.0793 8.94034 14.0793H9.53408V15.0155C9.53408 15.3469 9.82125 15.6155 10.1754 15.6155C10.5296 15.6155 10.8168 15.3469 10.8168 15.0155V11.7686C10.8168 10.6556 11.7847 9.75 12.9745 9.75C14.1643 9.75 15.1322 10.6555 15.1322 11.7686V12.8794H12.358C12.0038 12.8794 11.7166 13.148 11.7166 13.4794C11.7166 13.8107 12.0038 14.0794 12.358 14.0794H15.1322V15.0155C15.1322 15.3469 15.4193 15.6155 15.7735 15.6155C16.1277 15.6155 16.4149 15.3469 16.4149 15.0155V14.0794H17.0086C17.2956 14.0794 17.5354 14.2807 17.5665 14.5475L18.4243 21.9182C18.4603 22.2284 18.202 22.5 17.8664 22.5H8.0826C7.74846 22.5 7.48855 22.2296 7.5247 21.9182Z" fill="#007FFC" />
  </symbol>
  <symbol id='l-green' width="40" height="36" viewBox="0 0 40 36">
    <path d="M20.8442 0.600098C22.2608 0.600098 23.4096 1.67485 23.4096 3.0001V33.0001C23.4096 34.3254 22.2608 35.4001 20.8442 35.4001H3.20679C1.79019 35.4001 0.641357 34.3254 0.641357 33.0001V3.0001C0.641357 1.67485 1.79019 0.600098 3.20679 0.600098H20.8442Z" fill="#E1F4F5" />
    <path d="M16.0596 13.479C16.6737 13.479 17.1884 13.9118 17.2549 14.4825L18.1127 21.8535C18.1905 22.5188 17.6333 23.1 16.9174 23.1H7.13349C6.41758 23.1 5.8604 22.5188 5.93816 21.8535L6.79598 14.4825C6.86252 13.9118 7.37721 13.479 7.99131 13.479H16.0596Z" fill="#CAEFF2" />
    <path d="M20.9654 0.602744C23.0286 0.692519 22.9192 3.60012 20.8537 3.60012H12.5065C7.72462 3.60012 3.84816 7.22659 3.84816 11.7001V35.4001H3.2068C1.78995 35.4001 0.641357 34.3256 0.641357 33.0001V3.00012C0.641357 1.67464 1.78995 0.600119 3.2068 0.600119C3.32288 0.600119 20.8713 0.598619 20.9654 0.602744Z" fill="#F4FEFF" />
    <path d="M23.4096 30.1501V33.0001C23.4096 34.3254 22.2608 35.4001 20.8442 35.4001H3.20679C1.79019 35.4001 0.641357 34.3254 0.641357 33.0001V30.1501H23.4096Z" fill="#CAEFF2" />
    <path d="M3.84814 30.1501V33.009C3.84814 34.9636 0.641357 35.0635 0.641357 33.0001V30.1501H3.84814Z" fill="#E1F4F5" />
    <path d="M16.0598 15.729C12.175 15.729 8.99954 18.4649 8.58955 21.9895C8.51604 22.6214 7.94563 23.1 7.26618 23.1H7.1335C6.41758 23.1 5.8604 22.5188 5.93816 21.8535L6.79599 14.4825C6.86253 13.9118 7.37722 13.479 7.99132 13.479H16.0597C16.6733 13.479 17.1885 13.9113 17.2549 14.4821C17.3326 15.149 16.7744 15.729 16.0598 15.729Z" fill="#E1F4F5" />
    <path d="M20.8441 0H3.20679C1.43857 0 0 1.3458 0 3V33C0 34.6542 1.43857 36 3.20679 36H20.8441C22.6124 36 24.0509 34.6542 24.0509 33V3C24.0509 1.3458 22.6124 0 20.8441 0ZM20.8441 34.8H3.20679C2.1459 34.8 1.28272 33.9925 1.28272 33V3C1.28272 2.00745 2.1459 1.2 3.20679 1.2H20.8441C21.905 1.2 22.7682 2.00745 22.7682 3V29.55H4.40934C4.05515 29.55 3.76798 29.8187 3.76798 30.15C3.76798 30.4814 4.05515 30.75 4.40934 30.75H22.7682V33C22.7682 33.9925 21.905 34.8 20.8441 34.8ZM13.4685 32.625C13.4685 32.9564 13.1814 33.225 12.8272 33.225H11.2238C10.8696 33.225 10.5824 32.9564 10.5824 32.625C10.5824 32.2937 10.8696 32.025 11.2238 32.025H12.8272C13.1814 32.025 13.4685 32.2937 13.4685 32.625ZM7.13351 23.7H16.9174C18.0143 23.7 18.8692 22.8079 18.7505 21.7883L17.8928 14.4176C17.7907 13.5407 17.0026 12.8794 16.0597 12.8794H15.466V11.7686C15.4659 9.99383 13.9225 8.55 12.0255 8.55C10.1284 8.55 8.58506 9.99383 8.58506 11.7686V12.8793H7.99132C7.04837 12.8793 6.26038 13.5406 6.15824 14.4176L5.30051 21.7883C5.18177 22.8084 6.03727 23.7 7.13351 23.7ZM6.57561 21.9182L7.43334 14.5475C7.46445 14.2806 7.70424 14.0793 7.99124 14.0793H8.58498V15.0155C8.58498 15.3469 8.87215 15.6155 9.22634 15.6155C9.58053 15.6155 9.8677 15.3469 9.8677 15.0155V11.7686C9.8677 10.6556 10.8356 9.75 12.0254 9.75C13.2152 9.75 14.1831 10.6555 14.1831 11.7686V12.8794H11.4089C11.0547 12.8794 10.7675 13.148 10.7675 13.4794C10.7675 13.8107 11.0547 14.0794 11.4089 14.0794H14.1831V15.0155C14.1831 15.3469 14.4702 15.6155 14.8244 15.6155C15.1786 15.6155 15.4658 15.3469 15.4658 15.0155V14.0794H16.0595C16.3465 14.0794 16.5863 14.2807 16.6174 14.5475L17.4752 21.9182C17.5112 22.2284 17.2529 22.5 16.9173 22.5H7.13351C6.79936 22.5 6.53945 22.2296 6.57561 21.9182Z" fill="#52C29D" />
</svg> 